<svg width="131" height="68" viewBox="0 0 131 68" fill="none" xmlns="http://www.w3.org/2000/svg">
<rect x="5.42029" y="5.42021" width="57.1594" height="57.1594" rx="28.5797" stroke="url(#paint0_linear_1_100)" stroke-width="0.985507"/>
<path d="M99.8846 33.8557C100.077 33.6633 100.077 33.3513 99.8846 33.1588L96.7488 30.023C96.5564 29.8305 96.2444 29.8305 96.0519 30.023C95.8595 30.2154 95.8595 30.5274 96.0519 30.7198L98.8394 33.5073L96.0519 36.2947C95.8595 36.4871 95.8595 36.7991 96.0519 36.9916C96.2444 37.184 96.5564 37.184 96.7488 36.9916L99.8846 33.8557ZM33.5072 34H99.5362V33.0145H33.5072V34Z" fill="url(#paint1_linear_1_100)"/>
<path d="M75.6299 27.7825C77.7733 27.7825 78.9707 26.8068 78.9707 25.1364C78.9707 23.8947 78.2464 22.8451 76.1472 22.6234C77.9212 22.4312 78.5272 21.426 78.5272 20.3912C78.5272 18.8834 77.5368 17.8782 75.5264 17.8782H71.6386V27.7825H75.6299ZM75.2159 18.7355C76.5612 18.7355 77.5368 19.1495 77.5368 20.5095C77.5368 21.8547 76.5612 22.2686 75.1716 22.2686H72.6142V18.7355H75.2159ZM75.3194 23.126C76.842 23.126 77.9803 23.6877 77.9803 25.0182C77.9803 26.3634 77.1377 26.9251 75.4672 26.9251H72.6142V23.126H75.3194ZM83.0208 27.9303C84.4843 27.9303 85.2826 26.9399 85.5339 25.7573V27.7825H86.4947V20.6868H85.5339V24.7816C85.5339 26.0234 84.9426 27.1025 83.4052 27.1025C82.193 27.1025 81.6608 26.3929 81.6608 25.2547V20.6868H80.6999V25.4616C80.6999 27.1025 81.6313 27.9303 83.0208 27.9303ZM89.136 30.2808C90.0968 30.2808 90.7916 29.7634 91.2055 28.6251L94.2064 20.6868H93.1864L91.4125 25.5503L90.8951 27.0138L90.3925 25.5503L88.6038 20.6868H87.569L90.1707 27.546L90.7177 27.5312L90.4516 28.2408C90.1412 29.1129 89.7273 29.4234 89.1507 29.4234C88.5003 29.4234 88.1012 29.0242 87.8055 28.4477L87.2586 29.1573C87.5247 29.6895 88.1751 30.2808 89.136 30.2808ZM99.682 27.7825V20.5834L99.6228 19.4747L100.347 20.5686L105.314 27.7825H106.186V17.8782H105.211V24.9442L105.27 26.2303L104.412 24.9147L99.5785 17.8782H98.7063V27.7825H99.682ZM111.199 27.9303C113.15 27.9303 114.525 26.4816 114.525 24.2347C114.525 21.9877 113.15 20.539 111.199 20.539C109.248 20.539 107.888 21.9877 107.888 24.2347C107.888 26.4816 109.248 27.9303 111.199 27.9303ZM111.199 27.1025C109.809 27.1025 108.863 26.1121 108.863 24.2347C108.863 22.3425 109.809 21.3373 111.199 21.3373C112.603 21.3373 113.549 22.3425 113.549 24.2347C113.549 26.1121 112.603 27.1025 111.199 27.1025ZM118.335 27.7825L119.843 23.0521L120.256 21.4999L120.656 23.0521L122.163 27.7825H123.42L125.356 20.6868H124.263L123.11 25.4764L122.784 27.0582L122.356 25.4764L120.848 20.6868H119.65L118.143 25.4764L117.714 27.0582L117.389 25.4764L116.221 20.6868H115.142L117.078 27.7825H118.335Z" fill="#F5F7FA"/>
<defs>
<linearGradient id="paint0_linear_1_100" x1="-3.62233" y1="3.49231" x2="66.7563" y2="8.93933" gradientUnits="userSpaceOnUse">
<stop offset="0.270833" stop-color="#A3A3A3"/>
<stop offset="0.412103" stop-color="#CCCCCC"/>
<stop offset="0.551716" stop-color="white"/>
<stop offset="0.677083" stop-color="#CCCCCC"/>
<stop offset="0.833333" stop-color="#A3A3A3"/>
</linearGradient>
<linearGradient id="paint1_linear_1_100" x1="23.7981" y1="33.4826" x2="26.7631" y2="48.6351" gradientUnits="userSpaceOnUse">
<stop offset="0.270833" stop-color="#A3A3A3"/>
<stop offset="0.412103" stop-color="#CCCCCC"/>
<stop offset="0.551716" stop-color="white"/>
<stop offset="0.677083" stop-color="#CCCCCC"/>
<stop offset="0.833333" stop-color="#A3A3A3"/>
</linearGradient>
</defs>
</svg>
