<svg width="70" height="70" viewBox="0 0 70 70" fill="none" xmlns="http://www.w3.org/2000/svg">
<g id="cotton">
<g id="Group 1">
<path id="Vector" d="M58.0397 32.2013C58.0305 29.5692 56.9807 27.0471 55.1194 25.1859C53.258 23.3246 50.736 22.2748 48.104 22.2655C47.8987 22.2655 47.6934 22.2862 47.5087 22.2862H47.5083C46.5478 18.3413 43.8595 15.0402 40.1914 13.3C36.5233 11.5602 32.266 11.5671 28.6029 13.3184C24.9403 15.0702 22.2625 18.3795 21.3144 22.3275C18.8263 22.5823 16.521 23.7489 14.842 25.6024C13.1627 27.4555 12.2288 29.8648 12.22 32.3657C12.2122 34.5565 12.9344 36.6872 14.2729 38.4216C14.047 38.5242 13.8211 38.6269 13.6158 38.7295H13.6162C13.3628 38.8551 13.1704 39.0769 13.0824 39.3454C12.9967 39.6052 13.0265 39.8893 13.1644 40.1253C17.5167 48.3366 24.0857 48.6652 27.2269 48.2953V48.2958C26.4658 50.6249 24.9486 52.6337 22.916 54.0024C20.837 55.109 18.3805 55.2584 16.1829 54.413C15.639 54.2466 15.0626 54.5486 14.8894 55.0902C14.729 55.6286 15.031 56.1955 15.5671 56.3632C16.7772 56.7738 18.0456 56.9887 19.3235 56.9997C20.9526 57.013 22.5554 56.5878 23.9631 55.768C26.2592 54.2751 28.0096 52.0784 28.9512 49.5069C32.749 55.1934 39.4207 55.9939 42.8495 55.9939C43.5973 56.01 44.3456 55.9687 45.087 55.8707C45.613 55.7868 45.9878 55.3139 45.9494 54.7824C46.65 54.9813 47.3763 55.0784 48.1048 55.0702C50.4523 55.0633 52.7013 54.1244 54.3568 52.4596C56.0124 50.795 56.9389 48.5414 56.933 46.1935C56.927 43.846 55.9886 41.5965 54.3248 39.9405C56.6741 38.0586 58.041 35.2113 58.0406 32.2011L58.0397 32.2013ZM54.8784 46.2215V46.222C54.8812 48.0215 54.1686 49.7481 52.8984 51.0224C51.6278 52.2966 49.9035 53.0142 48.1041 53.017C47.2357 53.0234 46.3757 52.8484 45.5788 52.5038C45.0844 49.6363 43.5851 47.0381 41.3499 45.1749C39.9872 44.099 38.3664 43.3984 36.649 43.1428C40.9393 37.4155 38.1886 29.9636 38.0654 29.6152C37.8729 29.1038 37.3134 28.833 36.7928 28.9993C29.0947 31.4014 26.9392 36.0403 26.3647 38.8942L26.3642 38.8937C23.3876 36.9702 19.6865 36.538 16.3466 37.7239C15.0063 36.2617 14.2663 34.349 14.2731 32.3659C14.2791 30.258 15.1094 28.2364 16.5863 26.7329C18.0631 25.2291 20.0696 24.3625 22.1765 24.3185C22.6728 24.3217 23.098 23.9657 23.1823 23.4768C23.8101 19.916 26.0893 16.8632 29.3257 15.2498C32.5621 13.6369 36.3717 13.6543 39.5931 15.297C42.8148 16.9398 45.066 20.0126 45.6609 23.5793C45.6994 23.857 45.857 24.1045 46.0921 24.257C46.3102 24.4179 46.5842 24.4843 46.8518 24.4417C47.2642 24.3592 47.6835 24.318 48.1041 24.3184C50.4246 24.3157 52.6281 25.3366 54.1261 27.109C55.6241 28.8809 56.2638 31.2238 55.8747 33.5117C55.4856 35.7992 54.1069 37.7989 52.1072 38.9756C51.807 39.1543 51.6187 39.4727 51.6063 39.821C51.5935 40.1697 51.7589 40.501 52.0453 40.7003C53.8251 41.9765 54.8794 44.0325 54.8785 46.2223L54.8784 46.2215Z" fill="url(#paint0_linear_1_166)"/>
</g>
</g>
<defs>
<linearGradient id="paint0_linear_1_166" x1="5.48233" y1="10.8893" x2="60.9314" y2="15.2591" gradientUnits="userSpaceOnUse">
<stop offset="0.270833" stop-color="#A3A3A3"/>
<stop offset="0.412103" stop-color="#CCCCCC"/>
<stop offset="0.551716" stop-color="white"/>
<stop offset="0.677083" stop-color="#CCCCCC"/>
<stop offset="0.833333" stop-color="#A3A3A3"/>
</linearGradient>
</defs>
</svg>
