<svg width="70" height="70" viewBox="0 0 70 70" fill="none" xmlns="http://www.w3.org/2000/svg">
<g id="fleather">
<g id="Group">
<path id="Vector" d="M37.5216 41.8548C36.5793 42.0401 35.6228 42.1796 34.6596 42.273C35.6292 42.2404 36.5972 42.1602 37.5499 42.0333C39.7818 41.7386 42.0176 41.1794 44.193 40.3727C48.2771 38.8614 52.2312 36.4646 55.9452 33.2477C57.6564 31.7666 59.3067 30.1196 60.85 28.3511C61.6168 27.473 62.355 26.5651 63.045 25.6539C63.4048 25.1798 63.7505 24.7052 64.0734 24.2423C64.4323 23.7259 64.7362 23.2742 65.0522 22.7554C65.3829 22.2117 65.2098 21.4994 64.6647 21.1687C64.4833 21.0584 64.2762 21 64.0666 21C63.6596 21 63.2901 21.2076 63.0781 21.5548C63.0649 21.5762 63.0542 21.5961 63.044 21.6146C63.0411 21.62 63.0387 21.6253 63.0348 21.6307C62.8349 22.0138 62.5699 22.4763 62.231 23.0344C61.9533 23.491 61.6524 23.9637 61.3382 24.4368C60.7295 25.3534 60.0759 26.2681 59.3947 27.154C58.0152 28.9512 56.523 30.6394 54.9606 32.172C51.5505 35.518 47.8525 38.0864 43.967 39.8072C41.8771 40.7369 39.7089 41.4244 37.5218 41.8548L37.5216 41.8548Z" fill="url(#paint0_linear_1_187)"/>
<path id="Vector_2" d="M44.3841 40.8863C42.1965 41.6968 39.9242 42.2716 37.6223 42.576C36.3007 42.7515 34.9713 42.8381 33.6438 42.8381C32.6582 42.8381 31.6755 42.7909 30.6981 42.6961C26.102 42.2589 21.6898 40.7992 17.6376 38.754C21.8106 40.5449 26.2647 41.7027 30.7529 41.8476C31.0889 41.8593 31.4249 41.8641 31.7609 41.8641C33.6641 41.8641 35.5614 41.6813 37.4155 41.3171C39.5983 40.8882 41.7223 40.206 43.7446 39.3089C47.7007 37.5564 51.2528 34.9982 54.3517 32.0005C52.9075 31.1423 49.4789 29.8974 44.0412 32.5923C40.794 34.2018 36.4421 35.202 32.0789 35.5861C32.5939 35.9387 33.1307 36.2596 33.6943 36.5343C34.3755 36.864 35.0865 37.1402 35.8275 37.3323C36.5671 37.5302 37.3325 37.6576 38.1187 37.6649C37.3519 37.8676 36.5389 37.8676 35.7429 37.7908C34.9454 37.6994 34.1548 37.5078 33.4007 37.2156C32.4199 36.8412 31.5003 36.3165 30.6611 35.6878C29.1707 35.7744 27.6945 35.7875 26.2736 35.7282C26.5328 35.9917 26.8056 36.2431 27.0935 36.479C27.6813 36.9691 28.3232 37.4067 29.0336 37.7437C28.2522 37.6056 27.5146 37.2642 26.8246 36.8592C26.2688 36.5212 25.7485 36.1201 25.2711 35.6727C22.215 35.4671 19.4802 34.9137 17.5377 34.0044C11.6376 31.244 7.80148 27.2893 5.22 31.4745C5.22 31.4745 10.3296 42.0928 19.3062 46.5927C19.9369 46.2066 20.5486 45.7685 21.1137 45.2311C20.98 45.6118 20.7733 45.9653 20.5467 46.3018C20.396 46.5274 20.2282 46.7419 20.0502 46.9481C21.97 47.8175 23.9329 48.4413 25.9033 48.8484C26.9342 48.6826 27.945 48.4244 28.9215 48.0441C29.61 47.7777 30.281 47.4504 30.9277 47.0604C31.5744 46.6685 32.2021 46.2212 32.7799 45.6712C32.6461 46.052 32.4395 46.4055 32.2139 46.742C31.9873 47.0814 31.7237 47.396 31.4422 47.694C30.8742 48.2877 30.212 48.7973 29.4957 49.2184C29.4218 49.2617 29.3449 49.3001 29.2691 49.3419C32.9976 49.6682 36.6713 49.2792 40.0371 48.3855C40.7257 47.9605 41.3827 47.4835 41.9939 46.9452C42.5496 46.4585 43.0665 45.9207 43.5402 45.3313C44.0128 44.7401 44.448 44.105 44.802 43.3897C44.8069 43.7928 44.7344 44.1954 44.6381 44.5907C44.5419 44.9866 44.4033 45.3726 44.2409 45.75C44.0016 46.297 43.7002 46.8192 43.3501 47.3093C46.7684 45.9829 49.7103 44.1336 51.8434 42.036C51.8453 41.8541 51.8439 41.6727 51.8385 41.4894C51.8132 40.7338 51.7296 39.9684 51.5331 39.1947C51.7996 39.4982 52.0063 39.8502 52.1896 40.2125C52.3564 40.5407 52.4906 40.885 52.6048 41.238C54.5391 39.0713 55.6079 36.6881 55.481 34.3614C52.1555 37.1039 48.4279 39.3912 44.3838 40.8869L44.3841 40.8863Z" fill="url(#paint1_linear_1_187)"/>
</g>
</g>
<defs>
<linearGradient id="paint0_linear_1_187" x1="30.1658" y1="20.4749" x2="66.9233" y2="24.5618" gradientUnits="userSpaceOnUse">
<stop offset="0.270833" stop-color="#A3A3A3"/>
<stop offset="0.412103" stop-color="#CCCCCC"/>
<stop offset="0.551716" stop-color="white"/>
<stop offset="0.677083" stop-color="#CCCCCC"/>
<stop offset="0.833333" stop-color="#A3A3A3"/>
</linearGradient>
<linearGradient id="paint1_linear_1_187" x1="-2.17207" y1="29.1619" x2="56.766" y2="40.7403" gradientUnits="userSpaceOnUse">
<stop offset="0.270833" stop-color="#A3A3A3"/>
<stop offset="0.412103" stop-color="#CCCCCC"/>
<stop offset="0.551716" stop-color="white"/>
<stop offset="0.677083" stop-color="#CCCCCC"/>
<stop offset="0.833333" stop-color="#A3A3A3"/>
</linearGradient>
</defs>
</svg>
