<svg width="70" height="70" viewBox="0 0 70 70" fill="none" xmlns="http://www.w3.org/2000/svg">
<g id="healthy sleep">
<g id="Group">
<path id="Vector" d="M49.7999 16.3707C49.6046 16.5928 49.5677 16.9128 49.7079 17.1732C49.8324 17.4045 50.0738 17.5454 50.3307 17.5454C50.3626 17.5454 50.3951 17.5432 50.4277 17.5391L54.8013 16.934C55.1883 16.8803 55.4587 16.523 55.4057 16.1356C55.352 15.7486 54.9889 15.4759 54.6073 15.5312L52.2352 15.8595C52.9675 15.1454 53.7426 14.4737 54.5529 13.8523C54.7915 13.6691 54.8885 13.3557 54.7949 13.0704C54.7014 12.7851 54.4376 12.5898 54.1368 12.5835C52.2175 12.5468 50.3231 12.7958 48.4871 13.3294C48.112 13.4384 47.8962 13.8312 48.0043 14.2062C48.1133 14.5818 48.5047 14.798 48.8811 14.689C49.9249 14.386 50.9916 14.1816 52.0693 14.0767C51.268 14.7964 50.5082 15.5635 49.7989 16.371L49.7999 16.3707Z" fill="url(#paint0_linear_1_157)"/>
<path id="Vector_2" d="M54.0972 31.8549C52.3832 31.9554 50.6824 32.2596 49.0421 32.7601C48.6683 32.8741 48.4576 33.2697 48.5713 33.6441C48.686 34.0179 49.0809 34.2286 49.4553 34.1149C50.1836 33.8927 50.9245 33.7114 51.6733 33.5727L49.5113 35.2437C49.2586 35.439 49.1682 35.7796 49.2905 36.0746C49.4007 36.3413 49.6607 36.5112 49.9438 36.5112C49.9742 36.5112 50.0048 36.509 50.0351 36.5056L53.2546 36.0888C53.6426 36.0386 53.9156 35.6841 53.8654 35.2961C53.8151 34.9081 53.4578 34.633 53.0727 34.6854L52.4427 34.7669L54.5699 33.1221C54.8154 32.9325 54.9089 32.6049 54.8 32.3139C54.691 32.0229 54.3971 31.8397 54.0957 31.8552L54.0972 31.8549Z" fill="url(#paint1_linear_1_157)"/>
<path id="Vector_3" d="M49.7093 25.3834C50.635 25.0375 51.6116 24.8144 52.599 24.719C51.9661 25.3165 51.3712 25.9866 50.9238 26.772C50.7914 27.0042 50.8012 27.2908 50.9485 27.5139C51.0808 27.7126 51.303 27.8301 51.538 27.8301C51.5655 27.8301 51.5933 27.8289 51.6214 27.8251L54.0596 27.5357C54.4476 27.4895 54.725 27.1379 54.6789 26.7493C54.6327 26.3607 54.2776 26.0855 53.8925 26.13L53.0922 26.2248C53.6634 25.6141 54.3294 25.0691 54.9818 24.5354C55.2061 24.3522 55.2962 24.0498 55.2084 23.7734C55.1205 23.4972 54.8728 23.302 54.584 23.2815C52.7725 23.1513 50.9159 23.4208 49.2139 24.0565C48.848 24.193 48.6619 24.6015 48.7984 24.9674C48.9359 25.3332 49.3419 25.5187 49.7093 25.3828L49.7093 25.3834Z" fill="url(#paint2_linear_1_157)"/>
<path id="Vector_4" d="M33.8564 38.7444C34.0921 38.7785 34.33 38.7953 34.5676 38.7953C35.1613 38.7953 35.7537 38.6904 36.3122 38.4837C36.6787 38.3485 36.8664 37.9409 36.7305 37.5745C36.5953 37.207 36.1871 37.0209 35.8213 37.1561C35.2592 37.3628 34.6494 37.4272 34.0571 37.3438C33.6685 37.2879 33.3111 37.5561 33.2558 37.9441C33.1999 38.3305 33.4688 38.6894 33.8561 38.7453L33.8564 38.7444Z" fill="url(#paint3_linear_1_157)"/>
<path id="Vector_5" d="M17.0015 44.0947C17.017 44.1604 17.0227 44.2255 17.041 44.2921C17.1784 44.7945 17.3405 45.1196 17.4698 45.3812C17.6239 45.6912 17.7089 45.8624 17.7231 46.2532C17.743 46.8194 17.5844 47.1527 17.4006 47.5391C17.2031 47.9523 16.98 48.4215 17.0164 49.0995C17.0808 50.2176 17.7863 51.0726 18.4375 51.6296C17.6647 52.7407 17.0934 54.1489 16.7396 55.8371C16.6518 56.2617 16.7579 56.6961 17.0306 57.031C17.3001 57.3615 17.6994 57.5511 18.1263 57.5511L51.2903 57.5514C51.7171 57.5514 52.1162 57.3618 52.386 57.0314C52.6583 56.6974 52.7645 56.262 52.676 55.8345C52.1332 53.2564 51.0922 51.3532 49.5924 50.1516C49.6512 49.126 49.8543 48.1415 50.2139 47.2244C50.5684 46.3198 50.9004 45.9031 51.1927 45.5367C51.4587 45.2018 51.7349 44.8564 51.9153 44.2903C51.9576 44.1573 51.9901 44.0261 52.0151 43.896C53.2444 43.8783 55.1468 43.7475 56.246 42.4382C57.0557 41.4787 57.1682 40.2655 57.219 38.9995C57.4257 33.255 57.3925 27.4867 57.1192 21.8565C57.0478 20.3264 56.5341 19.2968 55.5834 18.7906C55.0337 18.5076 54.4312 18.4134 53.8574 18.342C50.7087 17.9635 47.4652 17.7171 43.9599 17.5853C43.9027 17.5281 43.848 17.475 43.7886 17.4153C42.0392 15.6871 40.657 14.3219 38.4596 13.8979C37.4757 13.7062 36.4489 13.7251 35.4094 13.958C34.8878 14.0739 34.4067 14.0954 33.9312 14.0189C32.6642 13.8351 31.4194 13.8866 30.2321 14.1731C27.6439 14.7946 26.0617 16.3471 25.3906 17.0053C25.22 17.1696 25.0276 17.3705 24.8266 17.5898C23.3616 17.5835 21.9003 17.5686 20.4366 17.5522L18.9333 17.5358C16.9644 17.5187 14.5724 17.7168 13.4685 19.5117C12.9036 20.421 12.8606 21.4769 12.8252 22.3242C12.7396 24.2641 12.6186 26.2378 12.5011 28.1464C12.3086 31.2809 12.109 34.5222 12.06 37.7341V39.8722C12.0742 40.5268 12.1456 41.4829 12.6034 42.2304C13.515 43.7144 15.3481 44.0401 16.9998 44.0932L17.0015 44.0947ZM26.2762 31.8281C26.3066 31.928 26.3334 32.0269 26.3717 32.1283C26.4532 32.3434 26.5606 32.5592 26.6803 32.7738C26.7198 33.1772 26.766 33.5671 26.8105 33.933L26.838 34.1551C26.8797 34.4969 26.9208 34.8239 26.9641 35.1452C26.7802 35.1474 26.6115 35.1133 26.4623 35.0432C25.6782 34.6729 25.5578 33.307 25.5057 32.7112C25.4908 32.5598 25.4703 32.3283 25.4681 32.0714C25.7347 32.0262 26.0052 31.939 26.2763 31.8278L26.2762 31.8281ZM24.5736 30.6563C24.4959 30.6351 24.4321 30.614 24.3802 30.5947C24.4093 30.5685 24.4425 30.5404 24.4813 30.5075C24.906 30.1593 25.487 29.8535 26.1701 29.5926C26.1221 29.8368 26.0895 30.0937 26.081 30.3632C25.6753 30.5897 25.1107 30.8033 24.5742 30.656L24.5736 30.6563ZM43.9505 32.0633C43.9483 32.3252 43.9277 32.5637 43.9122 32.7242C43.8604 33.3074 43.7404 34.6733 42.9562 35.0442C42.899 35.0711 42.8302 35.0755 42.7679 35.0916C42.8529 34.3337 42.8741 33.5751 42.8633 32.8269C43.0551 32.5404 43.2137 32.2339 43.3256 31.9047C43.518 31.9733 43.729 32.0257 43.9505 32.064L43.9505 32.0633ZM43.5094 29.6845C44.2017 29.9727 44.6566 30.2706 44.9375 30.5034C44.977 30.5366 45.0111 30.5663 45.0408 30.5925C44.989 30.6124 44.9255 30.6336 44.8474 30.6554C44.3915 30.7793 43.9189 30.6406 43.5616 30.4744C43.5644 30.214 43.5473 29.9505 43.5091 29.6845L43.5094 29.6845ZM27.5708 44.0451L30.4434 44.0309C30.4412 44.4138 30.4286 44.798 30.3995 45.1822C29.483 45.6845 28.5759 46.1417 27.6628 46.5834C27.7364 45.4971 27.6549 44.6994 27.5715 44.0441L27.5708 44.0451ZM29.9154 35.1222C30.0387 35.1358 30.1574 35.1421 30.2721 35.1421C31.3217 35.1421 32.0421 34.6107 32.6853 34.1364C32.9798 33.9191 33.2585 33.7187 33.5564 33.5668C33.4291 33.8726 33.3195 34.2031 33.2932 34.5712C33.2373 35.3462 33.5953 36.0482 34.2063 36.3588C34.3096 36.4113 34.4193 36.4359 34.527 36.4359C34.7845 36.4359 35.0331 36.295 35.1583 36.0495C35.3352 35.7013 35.1971 35.2751 34.849 35.0975C34.7697 35.0571 34.691 34.8726 34.7052 34.6716C34.7257 34.3851 34.873 34.0701 35.0483 33.6951C35.0951 33.5952 35.1409 33.4884 35.1864 33.3823C35.4884 33.4685 35.7314 33.6173 36.0237 33.8075C36.5459 34.1472 37.1955 34.5706 38.357 34.6625C38.8517 34.6991 40.2084 34.7304 41.4257 34.1077C41.3372 35.9123 40.9549 37.4624 39.8488 38.863C38.2792 40.8588 36.5579 41.4129 35.3915 41.5261C32.2358 41.8246 30.0603 39.267 29.8239 38.9761C28.7801 37.6823 28.5346 36.3234 28.3102 34.5339C28.7867 34.8382 29.3222 35.0578 29.9152 35.1228L29.9154 35.1222ZM34.0859 26.0683C34.2514 25.8582 34.417 25.6386 34.5835 25.3994C34.919 24.9148 35.2113 24.4001 35.4836 23.8738C36.7477 24.8045 38.2791 25.3726 39.8127 25.4497C39.8544 25.4519 39.9109 25.4553 39.9605 25.4604L39.9618 25.4674C40.019 25.8105 40.0799 26.1533 40.14 26.4964C38.346 26.17 36.5243 26.013 34.6969 26.0392C34.4924 26.0421 34.2887 26.0604 34.0846 26.0683L34.0859 26.0683ZM27.9647 40.5607C28.1268 40.228 28.3236 39.9146 28.5416 39.6145C28.6039 39.6988 28.657 39.7835 28.7249 39.8679C28.911 40.0972 29.4275 40.6874 30.2174 41.2918C30.2916 41.73 30.3454 42.1723 30.383 42.6165L27.4447 42.6308C27.4475 42.2747 27.4886 41.9053 27.6074 41.458C27.6349 41.3553 27.7524 40.9945 27.9647 40.5607ZM27.4921 48.2353C28.8092 47.6218 30.098 46.9706 31.4142 46.2389C31.6173 46.1264 31.7526 45.921 31.775 45.6904C31.8897 44.5362 31.8834 43.3834 31.7709 42.2444C32.6477 42.6621 33.6846 42.9663 34.8637 42.9663C35.0801 42.9663 35.3019 42.9565 35.5275 42.9344C36.1331 42.8757 36.8585 42.7215 37.6352 42.3872C37.5359 43.4864 37.5347 44.5919 37.6431 45.6895C37.6658 45.9207 37.8001 46.1255 38.0032 46.2386C39.5791 47.1153 41.139 47.8919 42.7398 48.6072C40.7977 49.2909 38.8588 49.7531 36.9565 49.9696C33.6302 50.356 30.3364 49.9936 27.3784 48.9383C27.4245 48.7042 27.4612 48.4692 27.4931 48.2341L27.4921 48.2353ZM53.6865 19.7479C54.1487 19.8061 54.5923 19.8724 54.9284 20.0459C55.3992 20.2964 55.6608 20.9283 55.7075 21.9248C55.9792 27.517 56.0124 33.245 55.8067 38.9464C55.7644 39.9925 55.687 40.9081 55.1647 41.5273C54.4937 42.3263 53.2037 42.4587 51.9778 42.4798C51.6701 41.1933 50.6806 40.0164 49.7131 38.8664C48.4478 37.3624 47.2526 35.942 47.5922 34.446C47.6756 34.0795 47.8923 33.4893 48.1223 32.8644C48.7564 31.1362 49.1953 29.843 49.0522 28.9359C48.9397 28.2184 48.7378 27.8029 48.5043 27.3224C48.285 26.8709 48.0118 26.3082 47.6693 25.2233C47.324 24.132 47.215 23.4872 47.1195 22.9191C47.0112 22.2765 46.918 21.7217 46.5249 20.8787C46.1945 20.1675 45.8201 19.6089 45.367 19.0677C48.2778 19.208 51.0224 19.4285 53.6865 19.7485L53.6865 19.7479ZM26.3791 18.0226C27.0211 17.3926 28.3573 16.0814 30.5654 15.5512C31.5781 15.307 32.6434 15.264 33.7211 15.4204C34.3587 15.5209 35.031 15.4947 35.7204 15.3411C36.5684 15.1515 37.399 15.1339 38.1918 15.2887C39.9702 15.6311 41.1557 16.8024 42.8244 18.4515C44.0332 19.6462 44.6986 20.3042 45.2426 21.4742C45.5548 22.1437 45.6227 22.5449 45.7245 23.1528C45.8227 23.7367 45.9453 24.4633 46.3203 25.6487C46.6941 26.8329 47.0047 27.4724 47.2319 27.9396C47.4527 28.3956 47.575 28.6461 47.6552 29.1547C47.7516 29.7689 47.1763 31.3372 46.7946 32.3754C46.5383 33.0734 46.3169 33.6762 46.2136 34.1312C45.7182 36.3137 47.266 38.1537 48.6318 39.7765C49.84 41.2124 50.9815 42.5691 50.5695 43.8585C50.4674 44.1763 50.3167 44.3659 50.0883 44.6525C49.7685 45.0537 49.3303 45.6028 48.8978 46.7061C48.5736 47.5342 48.36 48.4075 48.2472 49.3105C47.8649 49.1357 47.4454 48.9778 46.9152 48.7803C46.235 48.5275 45.3885 48.2129 44.1876 47.6988C42.4268 46.9459 40.7324 46.12 39.0191 45.1807C38.9265 43.9542 38.9802 42.7201 39.1676 41.5006C39.7698 41.0548 40.377 40.4785 40.9615 39.7364C41.7606 38.7244 42.2257 37.6499 42.5015 36.5552C42.8765 36.5523 43.2348 36.4752 43.5602 36.321C45.0784 35.6035 45.2489 33.6712 45.321 32.8498C45.3485 32.5708 45.3684 32.275 45.3649 31.9657C46.084 31.7316 46.5036 31.3607 46.5886 30.8504C46.709 30.1291 46.0995 29.6255 45.8392 29.4103C45.1412 28.8328 44.1846 28.3677 43.0124 28.0126C42.8898 27.7494 42.7492 27.4904 42.5856 27.237C42.4892 27.0875 42.3407 26.9795 42.1689 26.9349C41.9913 26.8888 41.8099 26.8572 41.6317 26.8146C41.5382 26.285 41.4441 25.7523 41.3493 25.1855C41.3126 25.0121 41.258 24.7501 41.0675 24.5125C40.7171 24.0822 40.2028 24.0519 39.8814 24.0336C38.5254 23.9656 37.1674 23.4292 36.0831 22.5508C36.3826 21.7957 36.6351 21.0128 36.8148 20.1927C36.8983 19.8104 36.6562 19.4331 36.2749 19.3497C35.8913 19.2663 35.5154 19.5077 35.4319 19.8897C35.0512 21.6276 34.3732 23.2096 33.419 24.5919C32.9562 25.2573 32.5069 25.7761 32.0207 26.2203C30.5155 26.3874 29.0221 26.662 27.5614 27.0702C27.4211 27.109 27.2967 27.1899 27.2053 27.3024C27.1835 27.3293 27.0107 27.5451 26.8082 27.8983C25.4584 28.2641 24.3665 28.7694 23.5824 29.413C23.3439 29.6088 22.7104 30.1292 22.8308 30.8502C22.9157 31.3646 23.3347 31.7349 24.0522 31.9662C24.0488 32.2755 24.0687 32.5699 24.0961 32.8474C24.1691 33.6726 24.3388 35.6046 25.8575 36.3221C26.193 36.4807 26.5611 36.56 26.9488 36.56C27.0303 36.56 27.1143 36.5452 27.1971 36.5389C27.3279 37.1518 27.5093 37.735 27.7668 38.3031C27.3421 38.8041 26.9797 39.3504 26.6932 39.9378C26.442 40.4521 26.2904 40.9039 26.2401 41.0907C25.9166 42.3029 26.0256 43.1389 26.1409 44.0226C26.2373 44.76 26.3453 45.596 26.2196 46.8655C26.1912 47.1536 26.163 47.4259 26.1362 47.6799C25.9729 49.079 25.7463 49.9702 25.0187 50.6694C24.0143 51.6334 22.3231 51.9553 20.9026 51.4536C20.5572 51.3326 20.1737 51.1364 19.8211 50.9016C18.974 50.3389 18.4673 49.6518 18.4303 49.0183C18.4133 48.7033 18.5188 48.4812 18.6787 48.1457C18.8979 47.6857 19.1706 47.1131 19.1387 46.1988C19.1125 45.5025 18.9223 45.1196 18.7381 44.7486C18.625 44.5208 18.5074 44.2851 18.406 43.9143C17.9163 42.137 18.6076 40.3659 19.0641 39.4654C19.4568 38.6835 19.7782 38.408 20.1187 38.1173C20.4938 37.796 20.919 37.4323 21.2242 36.5483C21.6122 35.4251 21.4309 34.5851 21.271 33.8436C21.1238 33.1599 20.9838 32.5144 21.2397 31.5441C21.3911 30.9722 21.5617 30.7182 21.798 30.3665C22.0337 30.0162 22.3275 29.5801 22.6318 28.7855C23.1351 27.474 23.118 26.5875 23.101 25.7297C23.0902 25.1983 23.0798 24.6483 23.1882 23.9386C23.6425 20.9337 25.5689 18.8007 26.3808 18.0185L26.3791 18.0226ZM13.4769 37.7472C13.5249 34.5789 13.7233 31.3544 13.9151 28.2363C14.0332 26.322 14.1542 24.3426 14.2405 22.3878C14.2765 21.5187 14.3312 20.811 14.6737 20.259C15.4025 19.0736 17.2284 18.9362 18.9193 18.9538L20.4226 18.9703C21.5195 18.9823 22.6165 18.9902 23.7135 18.9987C22.8762 20.2103 22.0788 21.7964 21.7862 23.7306C21.6596 24.5593 21.6722 25.1985 21.6836 25.7624C21.7 26.5827 21.7126 27.2309 21.3085 28.2834C21.0608 28.9289 20.8378 29.2606 20.622 29.5813C20.3566 29.9762 20.082 30.3838 19.8697 31.1872C19.5279 32.4858 19.7269 33.4067 19.8862 34.147C20.0305 34.8143 20.1446 35.3416 19.8855 36.091C19.7057 36.611 19.5254 36.7662 19.1977 37.0464C18.8063 37.3819 18.3194 37.798 17.8006 38.8321C17.388 39.6459 16.8178 41.0648 16.8247 42.6715C15.6074 42.6127 14.3512 42.37 13.8128 41.493C13.5029 40.9869 13.4846 40.1272 13.4779 39.8596V37.7472L13.4769 37.7472Z" fill="url(#paint4_linear_1_157)"/>
</g>
</g>
<defs>
<linearGradient id="paint0_linear_1_157" x1="46.883" y1="12.4574" x2="55.8173" y2="13.4929" gradientUnits="userSpaceOnUse">
<stop offset="0.270833" stop-color="#A3A3A3"/>
<stop offset="0.412103" stop-color="#CCCCCC"/>
<stop offset="0.551716" stop-color="white"/>
<stop offset="0.677083" stop-color="#CCCCCC"/>
<stop offset="0.833333" stop-color="#A3A3A3"/>
</linearGradient>
<linearGradient id="paint1_linear_1_157" x1="47.6134" y1="31.7393" x2="55.2068" y2="32.5349" gradientUnits="userSpaceOnUse">
<stop offset="0.270833" stop-color="#A3A3A3"/>
<stop offset="0.412103" stop-color="#CCCCCC"/>
<stop offset="0.551716" stop-color="white"/>
<stop offset="0.677083" stop-color="#CCCCCC"/>
<stop offset="0.833333" stop-color="#A3A3A3"/>
</linearGradient>
<linearGradient id="paint2_linear_1_157" x1="47.7997" y1="23.1365" x2="55.6059" y2="23.9922" gradientUnits="userSpaceOnUse">
<stop offset="0.270833" stop-color="#A3A3A3"/>
<stop offset="0.412103" stop-color="#CCCCCC"/>
<stop offset="0.551716" stop-color="white"/>
<stop offset="0.677083" stop-color="#CCCCCC"/>
<stop offset="0.833333" stop-color="#A3A3A3"/>
</linearGradient>
<linearGradient id="paint3_linear_1_157" x1="32.73" y1="37.0705" x2="36.9137" y2="37.7489" gradientUnits="userSpaceOnUse">
<stop offset="0.270833" stop-color="#A3A3A3"/>
<stop offset="0.412103" stop-color="#CCCCCC"/>
<stop offset="0.551716" stop-color="white"/>
<stop offset="0.677083" stop-color="#CCCCCC"/>
<stop offset="0.833333" stop-color="#A3A3A3"/>
</linearGradient>
<linearGradient id="paint4_linear_1_157" x1="5.4" y1="12.6866" x2="60.1992" y2="17.074" gradientUnits="userSpaceOnUse">
<stop offset="0.270833" stop-color="#A3A3A3"/>
<stop offset="0.412103" stop-color="#CCCCCC"/>
<stop offset="0.551716" stop-color="white"/>
<stop offset="0.677083" stop-color="#CCCCCC"/>
<stop offset="0.833333" stop-color="#A3A3A3"/>
</linearGradient>
</defs>
</svg>
