<svg width="28" height="27" viewBox="0 0 28 27" fill="none" xmlns="http://www.w3.org/2000/svg">
<path id="Vector" d="M13.9802 0C17.5509 0 17.9964 0.0131421 19.3974 0.0788532C20.7971 0.144564 21.7499 0.364039 22.5883 0.689966C23.4557 1.02378 24.1864 1.47587 24.9171 2.20526C25.5854 2.86224 26.1025 3.65694 26.4324 4.53406C26.757 5.37122 26.9778 6.32534 27.0435 7.72499C27.1053 9.12595 27.1224 9.57147 27.1224 13.1422C27.1224 16.7129 27.1093 17.1585 27.0435 18.5594C26.9778 19.9591 26.757 20.9119 26.4324 21.7504C26.1035 22.628 25.5862 23.4229 24.9171 24.0792C24.26 24.7472 23.4653 25.2643 22.5883 25.5944C21.7512 25.9191 20.7971 26.1399 19.3974 26.2056C17.9964 26.2673 17.5509 26.2844 13.9802 26.2844C10.4095 26.2844 9.96393 26.2713 8.56297 26.2056C7.16333 26.1399 6.21052 25.9191 5.37204 25.5944C4.49457 25.2652 3.69973 24.748 3.04324 24.0792C2.37484 23.4223 1.85773 22.6276 1.52795 21.7504C1.20202 20.9132 0.982546 19.9591 0.916835 18.5594C0.855067 17.1585 0.837982 16.7129 0.837982 13.1422C0.837982 9.57147 0.851124 9.12595 0.916835 7.72499C0.982546 6.32403 1.20202 5.37253 1.52795 4.53406C1.85681 3.6564 2.37405 2.86148 3.04324 2.20526C3.69992 1.53663 4.49471 1.01948 5.37204 0.689966C6.21052 0.364039 7.16201 0.144564 8.56297 0.0788532C9.96393 0.0170848 10.4095 0 13.9802 0ZM13.9802 6.5711C12.2374 6.5711 10.566 7.26341 9.33372 8.49574C8.1014 9.72806 7.40909 11.3994 7.40909 13.1422C7.40909 14.885 8.1014 16.5564 9.33372 17.7887C10.566 19.021 12.2374 19.7133 13.9802 19.7133C15.723 19.7133 17.3943 19.021 18.6267 17.7887C19.859 16.5564 20.5513 14.885 20.5513 13.1422C20.5513 11.3994 19.859 9.72806 18.6267 8.49574C17.3943 7.26341 15.723 6.5711 13.9802 6.5711ZM22.5226 6.24255C22.5226 5.80686 22.3495 5.38901 22.0415 5.08093C21.7334 4.77285 21.3155 4.59977 20.8798 4.59977C20.4442 4.59977 20.0263 4.77285 19.7182 5.08093C19.4101 5.38901 19.2371 5.80686 19.2371 6.24255C19.2371 6.67824 19.4101 7.09609 19.7182 7.40417C20.0263 7.71225 20.4442 7.88532 20.8798 7.88532C21.3155 7.88532 21.7334 7.71225 22.0415 7.40417C22.3495 7.09609 22.5226 6.67824 22.5226 6.24255ZM13.9802 9.19954C15.0258 9.19954 16.0287 9.61493 16.7681 10.3543C17.5075 11.0937 17.9229 12.0965 17.9229 13.1422C17.9229 14.1879 17.5075 15.1907 16.7681 15.9301C16.0287 16.6695 15.0258 17.0849 13.9802 17.0849C12.9345 17.0849 11.9317 16.6695 11.1923 15.9301C10.4529 15.1907 10.0375 14.1879 10.0375 13.1422C10.0375 12.0965 10.4529 11.0937 11.1923 10.3543C11.9317 9.61493 12.9345 9.19954 13.9802 9.19954Z" fill="url(#paint0_linear_1_57)"/>
<defs>
<linearGradient id="paint0_linear_1_57" x1="-3.02698" y1="-0.64876" x2="28.7877" y2="1.81357" gradientUnits="userSpaceOnUse">
<stop offset="0.270833" stop-color="#A3A3A3"/>
<stop offset="0.412103" stop-color="#CCCCCC"/>
<stop offset="0.551716" stop-color="white"/>
<stop offset="0.677083" stop-color="#CCCCCC"/>
<stop offset="0.833333" stop-color="#A3A3A3"/>
</linearGradient>
</defs>
</svg>
