<svg width="26" height="27" viewBox="0 0 26 27" fill="none" xmlns="http://www.w3.org/2000/svg">
<path id="Vector" fill-rule="evenodd" clip-rule="evenodd" d="M3.70275 0.182617C2.72072 0.182617 1.77891 0.572727 1.08451 1.26713C0.39011 1.96153 0 2.90334 0 3.88537V22.3991C0 23.3811 0.39011 24.3229 1.08451 25.0173C1.77891 25.7117 2.72072 26.1019 3.70275 26.1019H22.2165C23.1985 26.1019 24.1403 25.7117 24.8347 25.0173C25.5291 24.3229 25.9192 23.3811 25.9192 22.3991V3.88537C25.9192 2.90334 25.5291 1.96153 24.8347 1.26713C24.1403 0.572727 23.1985 0.182617 22.2165 0.182617H3.70275ZM5.74296 8.13797C6.32973 8.13797 6.89246 7.90488 7.30736 7.48998C7.72226 7.07507 7.95536 6.51234 7.95536 5.92558C7.95536 5.33882 7.72226 4.77609 7.30736 4.36118C6.89246 3.94628 6.32973 3.71319 5.74296 3.71319C5.1562 3.71319 4.59347 3.94628 4.17857 4.36118C3.76366 4.77609 3.53057 5.33882 3.53057 5.92558C3.53057 6.51234 3.76366 7.07507 4.17857 7.48998C4.59347 7.90488 5.1562 8.13797 5.74296 8.13797ZM7.59434 22.0529V9.87271H3.89159V22.0529H7.59434ZM10.053 9.87271H13.7557V11.5038C14.3019 10.6484 15.5016 9.49688 17.7325 9.49688C20.3947 9.49688 21.8407 11.2612 21.8407 14.6178C21.8407 14.7789 21.8555 15.5138 21.8555 15.5138V22.0511H18.1527V15.5157C18.1527 14.6178 17.9639 12.8534 15.9681 12.8534C13.9705 12.8534 13.802 15.0714 13.7557 16.5228V22.0511H10.053V9.87271Z" fill="url(#paint0_linear_1_55)"/>
<defs>
<linearGradient id="paint0_linear_1_55" x1="-3.81127" y1="-0.45713" x2="27.5614" y2="1.97099" gradientUnits="userSpaceOnUse">
<stop offset="0.270833" stop-color="#A3A3A3"/>
<stop offset="0.412103" stop-color="#CCCCCC"/>
<stop offset="0.551716" stop-color="white"/>
<stop offset="0.677083" stop-color="#CCCCCC"/>
<stop offset="0.833333" stop-color="#A3A3A3"/>
</linearGradient>
</defs>
</svg>
