<svg width="45" height="46" viewBox="0 0 45 46" fill="none" xmlns="http://www.w3.org/2000/svg">
<g id="material-symbols:mail-outline-rounded">
<path id="Vector" d="M7.5 38C6.46875 38 5.58625 37.6331 4.8525 36.8994C4.1175 36.1644 3.75 35.2812 3.75 34.25V11.75C3.75 10.7188 4.1175 9.83625 4.8525 9.1025C5.58625 8.3675 6.46875 8 7.5 8H37.5C38.5312 8 39.4144 8.3675 40.1494 9.1025C40.8831 9.83625 41.25 10.7188 41.25 11.75V34.25C41.25 35.2812 40.8831 36.1644 40.1494 36.8994C39.4144 37.6331 38.5312 38 37.5 38H7.5ZM37.5 15.5L23.4844 24.2656C23.3281 24.3594 23.1637 24.4294 22.9913 24.4756C22.82 24.5231 22.6562 24.5469 22.5 24.5469C22.3438 24.5469 22.18 24.5231 22.0087 24.4756C21.8363 24.4294 21.6719 24.3594 21.5156 24.2656L7.5 15.5V34.25H37.5V15.5ZM22.5 21.125L37.5 11.75H7.5L22.5 21.125ZM7.5 15.9688V13.2031V13.25V13.2256V15.9688Z" fill="url(#paint0_linear_1_67)"/>
</g>
<defs>
<linearGradient id="paint0_linear_1_67" x1="-1.76415" y1="7.25953" x2="43.4743" y2="11.6361" gradientUnits="userSpaceOnUse">
<stop offset="0.270833" stop-color="#A3A3A3"/>
<stop offset="0.412103" stop-color="#CCCCCC"/>
<stop offset="0.551716" stop-color="white"/>
<stop offset="0.677083" stop-color="#CCCCCC"/>
<stop offset="0.833333" stop-color="#A3A3A3"/>
</linearGradient>
</defs>
</svg>
