<svg width="25" height="25" viewBox="0 0 25 25" fill="none" xmlns="http://www.w3.org/2000/svg">
<g id="material-symbols:shopping-cart-rounded">
<path id="Vector" d="M7.5 22.5C6.95 22.5 6.47933 22.3043 6.088 21.913C5.696 21.521 5.5 21.05 5.5 20.5C5.5 19.95 5.696 19.479 6.088 19.087C6.47933 18.6957 6.95 18.5 7.5 18.5C8.05 18.5 8.52067 18.6957 8.912 19.087C9.304 19.479 9.5 19.95 9.5 20.5C9.5 21.05 9.304 21.521 8.912 21.913C8.52067 22.3043 8.05 22.5 7.5 22.5ZM17.5 22.5C16.95 22.5 16.4793 22.3043 16.088 21.913C15.696 21.521 15.5 21.05 15.5 20.5C15.5 19.95 15.696 19.479 16.088 19.087C16.4793 18.6957 16.95 18.5 17.5 18.5C18.05 18.5 18.521 18.6957 18.913 19.087C19.3043 19.479 19.5 19.95 19.5 20.5C19.5 21.05 19.3043 21.521 18.913 21.913C18.521 22.3043 18.05 22.5 17.5 22.5ZM7.5 17.5C6.75 17.5 6.18333 17.1707 5.8 16.512C5.41667 15.854 5.4 15.2 5.75 14.55L7.1 12.1L3.5 4.5H2.475C2.19167 4.5 1.95833 4.404 1.775 4.212C1.59167 4.02067 1.5 3.78333 1.5 3.5C1.5 3.21667 1.596 2.979 1.788 2.787C1.97933 2.59567 2.21667 2.5 2.5 2.5H4.125C4.30833 2.5 4.48333 2.55 4.65 2.65C4.81667 2.75 4.94167 2.89167 5.025 3.075L5.7 4.5H20.45C20.9 4.5 21.2083 4.66667 21.375 5C21.5417 5.33333 21.5333 5.68333 21.35 6.05L17.8 12.45C17.6167 12.7833 17.375 13.0417 17.075 13.225C16.775 13.4083 16.4333 13.5 16.05 13.5H8.6L7.5 15.5H18.525C18.8083 15.5 19.0417 15.5957 19.225 15.787C19.4083 15.979 19.5 16.2167 19.5 16.5C19.5 16.7833 19.404 17.0207 19.212 17.212C19.0207 17.404 18.7833 17.5 18.5 17.5H7.5Z" fill="url(#paint0_linear_1_11161)"/>
</g>
<defs>
<linearGradient id="paint0_linear_1_11161" x1="-1.44001" y1="2.00635" x2="22.7609" y2="3.87885" gradientUnits="userSpaceOnUse">
<stop offset="0.270833" stop-color="#A3A3A3"/>
<stop offset="0.412103" stop-color="#CCCCCC"/>
<stop offset="0.551716" stop-color="white"/>
<stop offset="0.677083" stop-color="#CCCCCC"/>
<stop offset="0.833333" stop-color="#A3A3A3"/>
</linearGradient>
</defs>
</svg>
