<svg width="25" height="25" viewBox="0 0 25 25" fill="none" xmlns="http://www.w3.org/2000/svg">
<g id="material-symbols:language">
<path id="Vector" d="M12.5 22.5C11.1333 22.5 9.84167 22.2373 8.625 21.712C7.40833 21.1873 6.346 20.4707 5.438 19.562C4.52933 18.654 3.81267 17.5917 3.288 16.375C2.76267 15.1583 2.5 13.8667 2.5 12.5C2.5 11.1167 2.76267 9.821 3.288 8.613C3.81267 7.40433 4.52933 6.346 5.438 5.438C6.346 4.52933 7.40833 3.81233 8.625 3.287C9.84167 2.76233 11.1333 2.5 12.5 2.5C13.8833 2.5 15.179 2.76233 16.387 3.287C17.5957 3.81233 18.654 4.52933 19.562 5.438C20.4707 6.346 21.1873 7.40433 21.712 8.613C22.2373 9.821 22.5 11.1167 22.5 12.5C22.5 13.8667 22.2373 15.1583 21.712 16.375C21.1873 17.5917 20.4707 18.654 19.562 19.562C18.654 20.4707 17.5957 21.1873 16.387 21.712C15.179 22.2373 13.8833 22.5 12.5 22.5ZM12.5 20.45C12.9333 19.85 13.3083 19.225 13.625 18.575C13.9417 17.925 14.2 17.2333 14.4 16.5H10.6C10.8 17.2333 11.0583 17.925 11.375 18.575C11.6917 19.225 12.0667 19.85 12.5 20.45ZM9.9 20.05C9.6 19.5 9.33767 18.929 9.113 18.337C8.88767 17.7457 8.7 17.1333 8.55 16.5H5.6C6.08333 17.3333 6.68733 18.0583 7.412 18.675C8.13733 19.2917 8.96667 19.75 9.9 20.05ZM15.1 20.05C16.0333 19.75 16.8623 19.2917 17.587 18.675C18.3123 18.0583 18.9167 17.3333 19.4 16.5H16.45C16.3 17.1333 16.1127 17.7457 15.888 18.337C15.6627 18.929 15.4 19.5 15.1 20.05ZM4.75 14.5H8.15C8.1 14.1667 8.06233 13.8373 8.037 13.512C8.01233 13.1873 8 12.85 8 12.5C8 12.15 8.01233 11.8127 8.037 11.488C8.06233 11.1627 8.1 10.8333 8.15 10.5H4.75C4.66667 10.8333 4.604 11.1627 4.562 11.488C4.52067 11.8127 4.5 12.15 4.5 12.5C4.5 12.85 4.52067 13.1873 4.562 13.512C4.604 13.8373 4.66667 14.1667 4.75 14.5ZM10.15 14.5H14.85C14.9 14.1667 14.9377 13.8373 14.963 13.512C14.9877 13.1873 15 12.85 15 12.5C15 12.15 14.9877 11.8127 14.963 11.488C14.9377 11.1627 14.9 10.8333 14.85 10.5H10.15C10.1 10.8333 10.0627 11.1627 10.038 11.488C10.0127 11.8127 10 12.15 10 12.5C10 12.85 10.0127 13.1873 10.038 13.512C10.0627 13.8373 10.1 14.1667 10.15 14.5ZM16.85 14.5H20.25C20.3333 14.1667 20.396 13.8373 20.438 13.512C20.4793 13.1873 20.5 12.85 20.5 12.5C20.5 12.15 20.4793 11.8127 20.438 11.488C20.396 11.1627 20.3333 10.8333 20.25 10.5H16.85C16.9 10.8333 16.9373 11.1627 16.962 11.488C16.9873 11.8127 17 12.15 17 12.5C17 12.85 16.9873 13.1873 16.962 13.512C16.9373 13.8373 16.9 14.1667 16.85 14.5ZM16.45 8.5H19.4C18.9167 7.66667 18.3123 6.94167 17.587 6.325C16.8623 5.70833 16.0333 5.25 15.1 4.95C15.4 5.5 15.6627 6.07067 15.888 6.662C16.1127 7.254 16.3 7.86667 16.45 8.5ZM10.6 8.5H14.4C14.2 7.76667 13.9417 7.075 13.625 6.425C13.3083 5.775 12.9333 5.15 12.5 4.55C12.0667 5.15 11.6917 5.775 11.375 6.425C11.0583 7.075 10.8 7.76667 10.6 8.5ZM5.6 8.5H8.55C8.7 7.86667 8.88767 7.254 9.113 6.662C9.33767 6.07067 9.6 5.5 9.9 4.95C8.96667 5.25 8.13733 5.70833 7.412 6.325C6.68733 6.94167 6.08333 7.66667 5.6 8.5Z" fill="url(#paint0_linear_1_11167)"/>
</g>
<defs>
<linearGradient id="paint0_linear_1_11167" x1="-0.440881" y1="2.00635" x2="23.7671" y2="3.87996" gradientUnits="userSpaceOnUse">
<stop offset="0.270833" stop-color="#A3A3A3"/>
<stop offset="0.412103" stop-color="#CCCCCC"/>
<stop offset="0.551716" stop-color="white"/>
<stop offset="0.677083" stop-color="#CCCCCC"/>
<stop offset="0.833333" stop-color="#A3A3A3"/>
</linearGradient>
</defs>
</svg>
