<svg width="34" height="34" viewBox="0 0 34 34" fill="none" xmlns="http://www.w3.org/2000/svg">
<g id="material-symbols:arrow-back-ios-new-rounded">
<path id="Vector" d="M12.5729 29.8916L24.5083 17.9916C24.65 17.8499 24.7501 17.6965 24.8086 17.5312C24.8681 17.3659 24.8979 17.1888 24.8979 16.9999C24.8979 16.8111 24.8681 16.634 24.8086 16.4687C24.7501 16.3034 24.65 16.1499 24.5083 16.0083L12.5729 4.07286C12.2423 3.7423 11.8291 3.57703 11.3333 3.57703C10.8375 3.57703 10.4125 3.75411 10.0583 4.10828C9.70414 4.46244 9.52706 4.87564 9.52706 5.34786C9.52706 5.82008 9.70414 6.23328 10.0583 6.58744L20.4708 16.9999L10.0583 27.4124C9.72775 27.743 9.56247 28.1501 9.56247 28.6336C9.56247 29.1181 9.73956 29.5374 10.0937 29.8916C10.4479 30.2458 10.8611 30.4229 11.3333 30.4229C11.8055 30.4229 12.2187 30.2458 12.5729 29.8916Z" fill="url(#paint0_linear_1_89)"/>
</g>
<defs>
<linearGradient id="paint0_linear_1_89" x1="27.1581" y1="2.91441" x2="8.47847" y2="3.74217" gradientUnits="userSpaceOnUse">
<stop offset="0.270833" stop-color="#A3A3A3"/>
<stop offset="0.412103" stop-color="#CCCCCC"/>
<stop offset="0.551716" stop-color="white"/>
<stop offset="0.677083" stop-color="#CCCCCC"/>
<stop offset="0.833333" stop-color="#A3A3A3"/>
</linearGradient>
</defs>
</svg>
