<svg width="34" height="34" viewBox="0 0 34 34" fill="none" xmlns="http://www.w3.org/2000/svg">
<g id="material-symbols:arrow-back-ios-new-rounded">
<path id="Vector" d="M21.4271 29.8916L9.49169 17.9916C9.35003 17.8499 9.24992 17.6965 9.19136 17.5312C9.13186 17.3659 9.10211 17.1888 9.10211 16.9999C9.10211 16.8111 9.13186 16.634 9.19136 16.4687C9.24992 16.3034 9.35003 16.1499 9.49169 16.0083L21.4271 4.07286C21.7577 3.7423 22.1709 3.57703 22.6667 3.57703C23.1625 3.57703 23.5875 3.75411 23.9417 4.10828C24.2959 4.46244 24.4729 4.87564 24.4729 5.34786C24.4729 5.82008 24.2959 6.23328 23.9417 6.58744L13.5292 16.9999L23.9417 27.4124C24.2722 27.743 24.4375 28.1501 24.4375 28.6336C24.4375 29.1181 24.2604 29.5374 23.9063 29.8916C23.5521 30.2458 23.1389 30.4229 22.6667 30.4229C22.1945 30.4229 21.7813 30.2458 21.4271 29.8916Z" fill="url(#paint0_linear_1_91)"/>
</g>
<defs>
<linearGradient id="paint0_linear_1_91" x1="6.84192" y1="2.91441" x2="25.5215" y2="3.74217" gradientUnits="userSpaceOnUse">
<stop offset="0.270833" stop-color="#A3A3A3"/>
<stop offset="0.412103" stop-color="#CCCCCC"/>
<stop offset="0.551716" stop-color="white"/>
<stop offset="0.677083" stop-color="#CCCCCC"/>
<stop offset="0.833333" stop-color="#A3A3A3"/>
</linearGradient>
</defs>
</svg>
