<svg width="27" height="27" viewBox="0 0 27 27" fill="none" xmlns="http://www.w3.org/2000/svg">
<path id="Vector" d="M26.838 2.95987V23.3246C26.838 24.8577 25.5941 26.1016 24.061 26.1016H9.85195C10.4189 25.1528 11.1479 23.7874 11.4372 22.6708C11.6107 22.0055 12.3223 19.2922 12.3223 19.2922C12.7852 20.1773 14.139 20.9236 15.5795 20.9236C19.8665 20.9236 22.9502 16.9838 22.9502 12.0893C22.9502 7.3973 19.1202 3.88554 14.191 3.88554C8.05846 3.88554 4.80705 7.99898 4.80705 12.4827C4.80705 14.5655 5.91785 17.1573 7.68819 17.9846C7.96011 18.1119 8.09896 18.0541 8.1626 17.7937C8.20888 17.597 8.45187 16.6309 8.55601 16.1854C8.59072 16.0407 8.57337 15.9192 8.45766 15.7804C7.87333 15.0688 7.39892 13.7613 7.39892 12.5406C7.39892 9.40485 9.77095 6.37328 13.815 6.37328C17.3036 6.37328 19.7508 8.75109 19.7508 12.1529C19.7508 15.9945 17.8127 18.6558 15.2845 18.6558C13.8902 18.6558 12.8488 17.5045 13.1786 16.087C13.5778 14.3977 14.353 12.5753 14.353 11.3545C14.353 8.28826 9.98501 8.71059 9.98501 12.8009C9.98501 14.0563 10.4073 14.9126 10.4073 14.9126C8.59072 22.5956 8.31881 22.694 8.69486 26.0553L8.82214 26.1016H3.69624C2.1631 26.1016 0.919235 24.8577 0.919235 23.3246V2.95987C0.919235 1.42673 2.1631 0.182861 3.69624 0.182861H24.061C25.5941 0.182861 26.838 1.42673 26.838 2.95987Z" fill="url(#paint0_linear_1_56)"/>
<defs>
<linearGradient id="paint0_linear_1_56" x1="-2.89196" y1="-0.456874" x2="28.4801" y2="1.9712" gradientUnits="userSpaceOnUse">
<stop offset="0.270833" stop-color="#A3A3A3"/>
<stop offset="0.412103" stop-color="#CCCCCC"/>
<stop offset="0.551716" stop-color="white"/>
<stop offset="0.677083" stop-color="#CCCCCC"/>
<stop offset="0.833333" stop-color="#A3A3A3"/>
</linearGradient>
</defs>
</svg>
