<svg width="127" height="60" viewBox="0 0 127 60" fill="none" xmlns="http://www.w3.org/2000/svg">
<rect x="1.4203" y="1.42024" width="57.1594" height="57.1594" rx="28.5797" stroke="url(#paint0_linear_1_11140)" stroke-width="0.985507"/>
<path d="M95.8847 29.8558C96.0771 29.6633 96.0771 29.3513 95.8847 29.1589L92.7488 26.023C92.5564 25.8306 92.2444 25.8306 92.052 26.023C91.8595 26.2155 91.8595 26.5275 92.052 26.7199L94.8394 29.5073L92.052 32.2948C91.8595 32.4872 91.8595 32.7992 92.052 32.9916C92.2444 33.1841 92.5564 33.1841 92.7488 32.9916L95.8847 29.8558ZM29.5073 30.0001H95.5362V29.0146H29.5073V30.0001Z" fill="url(#paint1_linear_1_11140)"/>
<path d="M67.0027 23.9155C68.8209 23.9155 70.2549 22.9694 70.2549 21.2399C70.2549 19.4216 68.8801 18.8303 67.3575 18.4755L66.1896 18.1946C64.9036 17.8842 64.1792 17.4407 64.1792 16.3616C64.1792 15.2825 65.1401 14.6616 66.3375 14.6616C67.7714 14.6616 68.8357 15.312 69.294 16.7016L70.107 16.0512C69.5305 14.5581 68.1705 13.7451 66.3523 13.7451C64.6818 13.7451 63.1592 14.6764 63.1592 16.4355C63.1592 18.1651 64.4896 18.7712 65.8792 19.0964L66.9583 19.3329C68.4662 19.6877 69.2792 20.1016 69.2792 21.2694C69.2792 22.5259 68.2149 23.0138 67.0027 23.0138C65.7018 23.0138 64.0905 22.3929 63.6175 20.6929L62.8636 21.3433C63.4992 23.1764 65.214 23.9155 67.0027 23.9155ZM72.9416 23.7825V19.6729C72.9416 18.4459 73.5625 17.352 75.0851 17.352C76.2973 17.352 76.7999 18.0616 76.7999 19.2146V23.7825H77.7755V18.9929C77.7755 17.3668 76.859 16.539 75.4842 16.539C74.0355 16.539 73.1929 17.5146 72.9416 18.6677V13.8781H71.9659V23.7825H72.9416ZM82.5997 23.9303C84.551 23.9303 85.9258 22.4816 85.9258 20.2346C85.9258 17.9877 84.551 16.539 82.5997 16.539C80.6484 16.539 79.2884 17.9877 79.2884 20.2346C79.2884 22.4816 80.6484 23.9303 82.5997 23.9303ZM82.5997 23.1025C81.2102 23.1025 80.2641 22.112 80.2641 20.2346C80.2641 18.3425 81.2102 17.3373 82.5997 17.3373C84.0041 17.3373 84.9502 18.3425 84.9502 20.2346C84.9502 22.112 84.0041 23.1025 82.5997 23.1025ZM88.6337 26.532V21.9051C88.8702 22.999 89.6389 23.9303 90.9989 23.9303C92.8467 23.9303 93.9554 22.4668 93.9554 20.2199C93.9554 17.9877 92.8467 16.5094 90.9989 16.5094C89.6389 16.5094 88.8702 17.4407 88.6337 18.5494V16.6868H87.658V26.532H88.6337ZM88.6337 20.8851V19.5546C88.6337 18.372 89.2693 17.3373 90.7033 17.3373C91.9893 17.3373 92.965 18.2242 92.965 20.2199C92.965 22.2155 91.9893 23.1025 90.7033 23.1025C89.2693 23.1025 88.6337 22.0677 88.6337 20.8851ZM99.984 23.7825V16.5833L99.9248 15.4746L100.649 16.5686L105.616 23.7825H106.488V13.8781H105.513V20.9442L105.572 22.2303L104.714 20.9146L99.8805 13.8781H99.0083V23.7825H99.984ZM111.501 23.9303C113.452 23.9303 114.827 22.4816 114.827 20.2346C114.827 17.9877 113.452 16.539 111.501 16.539C109.55 16.539 108.19 17.9877 108.19 20.2346C108.19 22.4816 109.55 23.9303 111.501 23.9303ZM111.501 23.1025C110.111 23.1025 109.165 22.112 109.165 20.2346C109.165 18.3425 110.111 17.3373 111.501 17.3373C112.905 17.3373 113.851 18.3425 113.851 20.2346C113.851 22.112 112.905 23.1025 111.501 23.1025ZM118.637 23.7825L120.145 19.052L120.558 17.4999L120.958 19.052L122.465 23.7825H123.722L125.658 16.6868H124.565L123.412 21.4764L123.086 23.0581L122.658 21.4764L121.15 16.6868H119.952L118.445 21.4764L118.016 23.0581L117.691 21.4764L116.523 16.6868H115.444L117.38 23.7825H118.637Z" fill="#F5F7FA"/>
<defs>
<linearGradient id="paint0_linear_1_11140" x1="-7.62231" y1="-0.507661" x2="62.7563" y2="4.93936" gradientUnits="userSpaceOnUse">
<stop offset="0.270833" stop-color="#A3A3A3"/>
<stop offset="0.412103" stop-color="#CCCCCC"/>
<stop offset="0.551716" stop-color="white"/>
<stop offset="0.677083" stop-color="#CCCCCC"/>
<stop offset="0.833333" stop-color="#A3A3A3"/>
</linearGradient>
<linearGradient id="paint1_linear_1_11140" x1="19.7981" y1="29.4826" x2="22.7631" y2="44.6352" gradientUnits="userSpaceOnUse">
<stop offset="0.270833" stop-color="#A3A3A3"/>
<stop offset="0.412103" stop-color="#CCCCCC"/>
<stop offset="0.551716" stop-color="white"/>
<stop offset="0.677083" stop-color="#CCCCCC"/>
<stop offset="0.833333" stop-color="#A3A3A3"/>
</linearGradient>
</defs>
</svg>
