<svg
    width="170"
    height="69"
    viewBox="0 0 170 69"
    fill="none"
    xmlns="http://www.w3.org/2000/svg"
>
    <rect
        x="5.66945"
        y="5.92024"
        width="57.1594"
        height="57.1594"
        rx="28.5797"
        stroke="url(#paint0_linear_1_70)"
        stroke-width="0.985507"
    />
    <path
        d="M100.134 34.3558C100.326 34.1633 100.326 33.8513 100.134 33.6589L96.998 30.523C96.8055 30.3306 96.4935 30.3306 96.3011 30.523C96.1087 30.7155 96.1087 31.0275 96.3011 31.2199L99.0885 34.0073L96.3011 36.7948C96.1087 36.9872 96.1087 37.2992 96.3011 37.4916C96.4935 37.6841 96.8055 37.6841 96.998 37.4916L100.134 34.3558ZM33.7564 34.5001H99.7854V33.5146H33.7564V34.5001Z"
        fill="url(#paint1_linear_1_70)"
    />
    <path
        d="M74.6842 29.633C76.5025 29.633 77.9364 28.687 77.9364 26.9574C77.9364 25.1391 76.5616 24.5478 75.039 24.193L73.8712 23.9122C72.5851 23.6017 71.8608 23.1583 71.8608 22.0791C71.8608 21 72.8216 20.3791 74.019 20.3791C75.4529 20.3791 76.5173 21.0296 76.9756 22.4191L77.7886 21.7687C77.2121 20.2757 75.8521 19.4626 74.0338 19.4626C72.3634 19.4626 70.8408 20.3939 70.8408 22.153C70.8408 23.8826 72.1712 24.4887 73.5608 24.8139L74.6399 25.0504C76.1477 25.4052 76.9608 25.8191 76.9608 26.987C76.9608 28.2435 75.8964 28.7313 74.6842 28.7313C73.3834 28.7313 71.7721 28.1104 71.299 26.4104L70.5451 27.0609C71.1808 28.8939 72.8956 29.633 74.6842 29.633ZM81.9962 29.6478C83.4597 29.6478 84.258 28.6574 84.5093 27.4748V29.5H85.4701V22.4043H84.5093V26.4991C84.5093 27.7409 83.918 28.82 82.3806 28.82C81.1684 28.82 80.6362 28.1104 80.6362 26.9722V22.4043H79.6753V27.1791C79.6753 28.82 80.6066 29.6478 81.9962 29.6478ZM88.5197 29.5V27.6374C88.7563 28.7313 89.5249 29.6626 90.8849 29.6626C92.7476 29.6626 93.8563 28.1991 93.8563 25.9522C93.8563 23.72 92.7476 22.2565 90.8849 22.2565C89.5249 22.2565 88.7563 23.1878 88.5197 24.2817V19.5957H87.5441V29.5H88.5197ZM88.5197 26.6174V25.287C88.5197 24.1043 89.1554 23.0696 90.5893 23.0696C91.8902 23.0696 92.8658 23.9713 92.8658 25.9522C92.8658 27.9478 91.8902 28.8496 90.5893 28.8496C89.1554 28.8496 88.5197 27.8 88.5197 26.6174ZM98.1029 29.6478C99.4186 29.6478 100.572 29.0417 100.572 27.6817C100.572 26.6765 99.9803 26.0704 98.502 25.7009L97.5559 25.4643C96.5212 25.213 95.989 24.947 95.989 24.2078C95.989 23.4687 96.5951 23.0696 97.4525 23.0696C98.5612 23.0696 99.3003 23.6017 99.6255 24.5626L100.365 24.0157C100.01 23.0104 99.0194 22.2565 97.5116 22.2565C96.0481 22.2565 95.0725 23.0252 95.0725 24.2522C95.0725 25.5235 96.122 25.9965 97.142 26.2478L98.1029 26.4696C99.0638 26.6913 99.6994 26.9574 99.6994 27.6965C99.6994 28.4357 99.0786 28.82 98.1325 28.82C96.6986 28.82 95.8116 28.0217 95.5899 27.0609L94.8655 27.6078C95.2942 28.9974 96.6542 29.6478 98.1029 29.6478ZM104.95 29.6478C106.724 29.6478 107.832 28.613 108.113 27.1791L107.182 26.78C107.034 27.9774 106.325 28.8348 104.965 28.8348C103.56 28.8348 102.629 27.8296 102.629 25.9522C102.629 24.06 103.56 23.0548 104.965 23.0548C106.325 23.0548 107.034 23.927 107.182 25.1243L108.113 24.7252C107.832 23.2913 106.724 22.2565 104.965 22.2565C102.954 22.2565 101.638 23.6461 101.638 25.9522C101.638 28.2583 102.954 29.6478 104.95 29.6478ZM110.549 29.5V25.3904C110.549 24.1635 111.392 22.9809 112.456 22.9809C113.107 22.9809 113.373 23.3948 113.373 23.853C113.373 24.2817 113.195 24.74 113.003 24.9617H114.053C114.186 24.7252 114.319 24.2817 114.319 23.7496C114.319 22.7739 113.639 22.2417 112.811 22.2417C111.599 22.2417 110.815 23.2174 110.549 24.3409V22.4043H109.574V29.5H110.549ZM116.627 21.133V19.5957H115.651V21.133H116.627ZM116.627 29.5V22.4043H115.651V29.5H116.627ZM119.673 29.5V27.6374C119.909 28.7313 120.678 29.6626 122.038 29.6626C123.901 29.6626 125.009 28.1991 125.009 25.9522C125.009 23.72 123.901 22.2565 122.038 22.2565C120.678 22.2565 119.909 23.1878 119.673 24.2817V19.5957H118.697V29.5H119.673ZM119.673 26.6174V25.287C119.673 24.1043 120.309 23.0696 121.742 23.0696C123.043 23.0696 124.019 23.9713 124.019 25.9522C124.019 27.9478 123.043 28.8496 121.742 28.8496C120.309 28.8496 119.673 27.8 119.673 26.6174ZM129.753 29.6478C131.261 29.6478 132.207 28.9235 132.709 28.0513L132.118 27.3565C131.808 28.0513 131.187 28.8348 129.753 28.8348C128.348 28.8348 127.388 27.9478 127.328 26.1739H132.739C132.754 26.0557 132.783 25.8783 132.783 25.7009C132.783 23.5574 131.571 22.2565 129.635 22.2565C127.713 22.2565 126.397 23.6461 126.397 25.9522C126.397 28.3026 127.772 29.6478 129.753 29.6478ZM129.635 23.0548C130.935 23.0548 131.808 23.8678 131.896 25.4643H127.343C127.476 23.8678 128.334 23.0548 129.635 23.0548ZM138.891 29.5V22.3009L138.832 21.1922L139.556 22.2861L144.523 29.5H145.395V19.5957H144.42V26.6617L144.479 27.9478L143.621 26.6322L138.787 19.5957H137.915V29.5H138.891ZM150.408 29.6478C152.359 29.6478 153.734 28.1991 153.734 25.9522C153.734 23.7052 152.359 22.2565 150.408 22.2565C148.457 22.2565 147.097 23.7052 147.097 25.9522C147.097 28.1991 148.457 29.6478 150.408 29.6478ZM150.408 28.82C149.018 28.82 148.072 27.8296 148.072 25.9522C148.072 24.06 149.018 23.0548 150.408 23.0548C151.812 23.0548 152.758 24.06 152.758 25.9522C152.758 27.8296 151.812 28.82 150.408 28.82ZM157.544 29.5L159.051 24.7696L159.465 23.2174L159.865 24.7696L161.372 29.5H162.629L164.565 22.4043H163.471L162.318 27.1939L161.993 28.7757L161.565 27.1939L160.057 22.4043H158.859L157.351 27.1939L156.923 28.7757L156.598 27.1939L155.43 22.4043H154.351L156.287 29.5H157.544Z"
        fill="#F5F7FA"
    />
    <defs>
        <linearGradient
            id="paint0_linear_1_70"
            x1="-3.37317"
            y1="3.99234"
            x2="67.0054"
            y2="9.43936"
            gradientUnits="userSpaceOnUse"
        >
            <stop offset="0.270833" stop-color="#A3A3A3" />
            <stop offset="0.412103" stop-color="#CCCCCC" />
            <stop offset="0.551716" stop-color="white" />
            <stop offset="0.677083" stop-color="#CCCCCC" />
            <stop offset="0.833333" stop-color="#A3A3A3" />
        </linearGradient>
        <linearGradient
            id="paint1_linear_1_70"
            x1="24.0472"
            y1="33.9826"
            x2="27.0123"
            y2="49.1352"
            gradientUnits="userSpaceOnUse"
        >
            <stop offset="0.270833" stop-color="#A3A3A3" />
            <stop offset="0.412103" stop-color="#CCCCCC" />
            <stop offset="0.551716" stop-color="white" />
            <stop offset="0.677083" stop-color="#CCCCCC" />
            <stop offset="0.833333" stop-color="#A3A3A3" />
        </linearGradient>
    </defs>
</svg>
