<svg width="70" height="70" viewBox="0 0 70 70" fill="none" xmlns="http://www.w3.org/2000/svg">
<g id="tailoring">
<g id="Group">
<path id="Vector" d="M16.7201 43C17.0001 43 17.2201 42.78 17.2201 42.5V38H18.2201V36H15.2202V38H16.2202V42.5C16.2202 42.78 16.4402 43 16.7202 43H16.7201Z" fill="url(#paint0_linear_1_171)"/>
<path id="Vector_2" d="M47.2207 39C48.3207 39 49.2207 38.1 49.2207 37C49.2207 35.9 48.3207 35 47.2207 35C46.1207 35 45.2207 35.9 45.2207 37C45.2207 38.1 46.1207 39 47.2207 39Z" fill="url(#paint1_linear_1_171)"/>
<path id="Vector_3" d="M17.2202 27.5C17.2202 27.22 17.4402 27 17.7202 27H31.7198C31.9998 27 32.2198 27.22 32.2198 27.5V31H40.7198C40.9998 31 41.2198 31.22 41.2198 31.5V45.0004H53.2199V20.0001H14.7201C13.3401 20.0001 12.2201 21.1201 12.2201 22.5002V31.0002H17.2201L17.2202 27.5ZM47.2198 34.0001C48.8698 34.0001 50.2198 35.3501 50.2198 37C50.2198 38.65 48.8697 40 47.2198 40C45.5699 40 44.2199 38.65 44.2199 37C44.2199 35.3501 45.5699 34.0001 47.2198 34.0001Z" fill="url(#paint2_linear_1_171)"/>
<path id="Vector_4" d="M49.2203 16H48.2203V12.5C48.2203 12.22 48.0003 12 47.7203 12C47.4403 12 47.2203 12.22 47.2203 12.5V16H46.2202V19H49.2202L49.2203 16Z" fill="url(#paint3_linear_1_171)"/>
<path id="Vector_5" d="M38.2205 16H41.2204V19H38.2205V16Z" fill="url(#paint4_linear_1_171)"/>
<path id="Vector_6" d="M21.7203 31H31.2207V28H18.2204V31H21.7203Z" fill="url(#paint5_linear_1_171)"/>
<path id="Vector_7" d="M18.7206 35H21.2206V32H12.2205V35H18.7206Z" fill="url(#paint6_linear_1_171)"/>
<path id="Vector_8" d="M21.7203 51H12.2199V54H28.6497C26.8597 52.1099 24.3396 51 21.7196 51H21.7203Z" fill="url(#paint7_linear_1_171)"/>
<path id="Vector_9" d="M56.221 23H54.221V28.0001H56.221C56.771 28.0001 57.2211 27.5501 57.2211 27V24C57.2211 23.45 56.7711 23 56.221 23Z" fill="url(#paint8_linear_1_171)"/>
<path id="Vector_10" d="M14.5304 55L16.0304 58H53.4101L54.9101 55H14.5304Z" fill="url(#paint9_linear_1_171)"/>
<path id="Vector_11" d="M40.7201 45.9998H12.2199V49.9998H21.7203C24.9203 49.9998 27.9903 51.4898 29.9703 53.9998H57.2206V45.9998H40.7201Z" fill="url(#paint10_linear_1_171)"/>
<path id="Vector_12" d="M56.221 32.9995H54.221V37.9996H56.221C56.771 37.9996 57.2211 37.5496 57.2211 36.9995V33.9996C57.2211 33.4496 56.7711 32.9995 56.221 32.9995Z" fill="url(#paint11_linear_1_171)"/>
</g>
</g>
<defs>
<linearGradient id="paint0_linear_1_171" x1="14.779" y1="35.8272" x2="18.4279" y2="35.9483" gradientUnits="userSpaceOnUse">
<stop offset="0.270833" stop-color="#A3A3A3"/>
<stop offset="0.412103" stop-color="#CCCCCC"/>
<stop offset="0.551716" stop-color="white"/>
<stop offset="0.677083" stop-color="#CCCCCC"/>
<stop offset="0.833333" stop-color="#A3A3A3"/>
</linearGradient>
<linearGradient id="paint1_linear_1_171" x1="44.6325" y1="34.9013" x2="49.4741" y2="35.276" gradientUnits="userSpaceOnUse">
<stop offset="0.270833" stop-color="#A3A3A3"/>
<stop offset="0.412103" stop-color="#CCCCCC"/>
<stop offset="0.551716" stop-color="white"/>
<stop offset="0.677083" stop-color="#CCCCCC"/>
<stop offset="0.833333" stop-color="#A3A3A3"/>
</linearGradient>
<linearGradient id="paint2_linear_1_171" x1="6.19132" y1="19.3831" x2="55.3232" y2="25.6192" gradientUnits="userSpaceOnUse">
<stop offset="0.270833" stop-color="#A3A3A3"/>
<stop offset="0.412103" stop-color="#CCCCCC"/>
<stop offset="0.551716" stop-color="white"/>
<stop offset="0.677083" stop-color="#CCCCCC"/>
<stop offset="0.833333" stop-color="#A3A3A3"/>
</linearGradient>
<linearGradient id="paint3_linear_1_171" x1="45.7791" y1="11.8272" x2="49.4281" y2="11.9483" gradientUnits="userSpaceOnUse">
<stop offset="0.270833" stop-color="#A3A3A3"/>
<stop offset="0.412103" stop-color="#CCCCCC"/>
<stop offset="0.551716" stop-color="white"/>
<stop offset="0.677083" stop-color="#CCCCCC"/>
<stop offset="0.833333" stop-color="#A3A3A3"/>
</linearGradient>
<linearGradient id="paint4_linear_1_171" x1="37.7793" y1="15.926" x2="41.4105" y2="16.207" gradientUnits="userSpaceOnUse">
<stop offset="0.270833" stop-color="#A3A3A3"/>
<stop offset="0.412103" stop-color="#CCCCCC"/>
<stop offset="0.551716" stop-color="white"/>
<stop offset="0.677083" stop-color="#CCCCCC"/>
<stop offset="0.833333" stop-color="#A3A3A3"/>
</linearGradient>
<linearGradient id="paint5_linear_1_171" x1="16.3088" y1="27.926" x2="30.5379" y2="32.6983" gradientUnits="userSpaceOnUse">
<stop offset="0.270833" stop-color="#A3A3A3"/>
<stop offset="0.412103" stop-color="#CCCCCC"/>
<stop offset="0.551716" stop-color="white"/>
<stop offset="0.677083" stop-color="#CCCCCC"/>
<stop offset="0.833333" stop-color="#A3A3A3"/>
</linearGradient>
<linearGradient id="paint6_linear_1_171" x1="10.8971" y1="31.926" x2="21.2954" y2="34.3404" gradientUnits="userSpaceOnUse">
<stop offset="0.270833" stop-color="#A3A3A3"/>
<stop offset="0.412103" stop-color="#CCCCCC"/>
<stop offset="0.551716" stop-color="white"/>
<stop offset="0.677083" stop-color="#CCCCCC"/>
<stop offset="0.833333" stop-color="#A3A3A3"/>
</linearGradient>
<linearGradient id="paint7_linear_1_171" x1="9.80401" y1="50.926" x2="26.7628" y2="58.1143" gradientUnits="userSpaceOnUse">
<stop offset="0.270833" stop-color="#A3A3A3"/>
<stop offset="0.412103" stop-color="#CCCCCC"/>
<stop offset="0.551716" stop-color="white"/>
<stop offset="0.677083" stop-color="#CCCCCC"/>
<stop offset="0.833333" stop-color="#A3A3A3"/>
</linearGradient>
<linearGradient id="paint8_linear_1_171" x1="53.7799" y1="22.8766" x2="57.425" y2="23.0459" gradientUnits="userSpaceOnUse">
<stop offset="0.270833" stop-color="#A3A3A3"/>
<stop offset="0.412103" stop-color="#CCCCCC"/>
<stop offset="0.551716" stop-color="white"/>
<stop offset="0.677083" stop-color="#CCCCCC"/>
<stop offset="0.833333" stop-color="#A3A3A3"/>
</linearGradient>
<linearGradient id="paint9_linear_1_171" x1="8.5928" y1="54.926" x2="32.1719" y2="79.4896" gradientUnits="userSpaceOnUse">
<stop offset="0.270833" stop-color="#A3A3A3"/>
<stop offset="0.412103" stop-color="#CCCCCC"/>
<stop offset="0.551716" stop-color="white"/>
<stop offset="0.677083" stop-color="#CCCCCC"/>
<stop offset="0.833333" stop-color="#A3A3A3"/>
</linearGradient>
<linearGradient id="paint10_linear_1_171" x1="5.60283" y1="45.8023" x2="51.6671" y2="65.8567" gradientUnits="userSpaceOnUse">
<stop offset="0.270833" stop-color="#A3A3A3"/>
<stop offset="0.412103" stop-color="#CCCCCC"/>
<stop offset="0.551716" stop-color="white"/>
<stop offset="0.677083" stop-color="#CCCCCC"/>
<stop offset="0.833333" stop-color="#A3A3A3"/>
</linearGradient>
<linearGradient id="paint11_linear_1_171" x1="53.7799" y1="32.8761" x2="57.425" y2="33.0454" gradientUnits="userSpaceOnUse">
<stop offset="0.270833" stop-color="#A3A3A3"/>
<stop offset="0.412103" stop-color="#CCCCCC"/>
<stop offset="0.551716" stop-color="white"/>
<stop offset="0.677083" stop-color="#CCCCCC"/>
<stop offset="0.833333" stop-color="#A3A3A3"/>
</linearGradient>
</defs>
</svg>
